<svg xmlns="http://www.w3.org/2000/svg" width="1066.667" height="274.667"><defs><clipPath clipPathUnits="userSpaceOnUse" id="a"><path d="M0 206h800V0H0z"/></clipPath></defs><g clip-path="url(#a)" transform="matrix(1.33333 0 0 -1.33333 0 274.667)"><path d="M38.568 54.116c-3.652 0-5.549-2.165-5.549-5.958V35.834c0-3.793 1.897-5.958 5.55-5.958 3.658 0 5.555 2.165 5.555 5.958v3.148H40.6v-3.384c0-1.693-.744-2.303-1.929-2.303-1.183 0-1.926.61-1.926 2.303v12.799c0 1.69.743 2.332 1.926 2.332 1.185 0 1.93-.642 1.93-2.332v-2.54h3.524v2.3c0 3.794-1.897 5.959-5.556 5.959M231.635 80.779c-.52.936-.44 2.16.105 3.387l20.91 46.96c1.129 2.547 1.23 5.09.157 7.037-1.081 1.94-3.195 2.908-5.737 2.908h-58.672L163.222 84.54c-1.131-2.543-1.295-5.092-.217-7.032 1.08-1.94 3.188-2.905 5.737-2.905h68.844l2.125 4.743v.022h-5.305c-1.23 0-2.245.468-2.771 1.41M258.888 46.944a4.68 4.68 0 010-9.36 4.683 4.683 0 014.678 4.68 4.678 4.678 0 01-4.678 4.68M217.723 54.116c-3.655 0-5.552-2.165-5.552-5.958V35.834c0-3.793 1.897-5.958 5.552-5.958 3.656 0 5.556 2.165 5.556 5.958v7.518h-5.219v-3.387h1.694v-4.367c0-1.693-.743-2.303-1.929-2.303s-1.93.61-1.93 2.303v12.799c0 1.69.744 2.332 1.93 2.332s1.93-.642 1.93-2.332v-2.54h3.524v2.3c0 3.794-1.9 5.959-5.556 5.959M298.16 48.395c0 1.69.677 2.332 1.863 2.332s1.86-.641 1.86-2.331v-1.15h3.522v.91c0 3.793-1.86 5.958-5.484 5.958-3.623 0-5.487-2.165-5.487-5.958 0-6.77 7.28-7.685 7.28-12.559 0-1.694-.744-2.303-1.927-2.303-1.19 0-1.933.61-1.933 2.304v1.863h-3.52v-1.629c0-3.789 1.895-5.955 5.554-5.955 3.656 0 5.553 2.166 5.553 5.955 0 6.771-7.282 7.686-7.282 12.563M328.901 53.847V43.69h-4.232v10.158h-3.72V30.143h3.72V40.31h4.232V30.143h3.793v23.704zM193.11 53.847V39.663l-3.825 14.184h-4.671V30.143h3.35v17.17l4.639-17.17h3.823v23.704zM164.841 30.145h3.725v23.704h-3.725zM354.12 54.116c-3.655 0-5.653-2.165-5.653-5.958V35.834c0-3.793 1.998-5.958 5.654-5.958 3.659 0 5.654 2.165 5.654 5.958v12.324c0 3.793-1.995 5.958-5.654 5.958m1.933-18.518c0-1.693-.747-2.335-1.933-2.335s-1.93.642-1.93 2.335v12.799c0 1.69.744 2.332 1.93 2.332s1.933-.642 1.933-2.332zM90.026 54.116c-3.659 0-5.654-2.165-5.654-5.958V35.834c0-3.793 1.995-5.958 5.654-5.958 3.66 0 5.654 2.165 5.654 5.958v12.324c0 3.793-1.995 5.958-5.654 5.958m1.93-18.518c0-1.693-.744-2.335-1.93-2.335s-1.929.642-1.929 2.335v12.799c0 1.69.743 2.332 1.93 2.332 1.185 0 1.93-.642 1.93-2.332zM202.824 151.385h58.664l4.693 10.539c1.128 2.546 1.295 5.088.214 7.036-1.077 1.936-3.195 2.908-5.734 2.908h-58.668l-4.69-10.535c-1.13-2.55-1.29-5.092-.213-7.032 1.077-1.948 3.188-2.916 5.734-2.916M59.762 53.847V30.143h9.85v3.388h-6.126v20.316zM110.44 53.847V50.46h3.896V30.143h3.725V50.46h3.89v3.387zM174.951 151.268c2.354.812 4.08 2.357 5.157 4.624l9.578 19.954h-10.02c-1.19-1.807-2.659-2.912-4.42-3.337-1.869-.435-6.286-.642-13.27-.642H64.113c-5.407 0-9.429-.174-12.084-.511-2.76-.326-4.816-1.001-6.202-1.98-1.563-1.063-2.846-2.622-3.826-4.708l-8.987-18.67h9.586c1.367 1.654 2.8 2.76 4.268 3.283 1.378.46 4.033.707 7.957.707h15.776L39.206 84.085c-.692-1.19-1.033-2.426-1.033-3.707 0-3.851 5.31-5.777 15.91-5.777h70.76l2.055 4.21c-3.242.323-5.498.846-6.778 1.567-1.276.613-1.915 1.563-1.915 2.858 0 1.08.791 3.246 2.357 6.47l28.738 60.282h14.151c5.306 0 9.143.424 11.5 1.28M144.974 53.847V43.69h-4.232v10.158h-3.721V30.143h3.72V40.31h4.233V30.143h3.793v23.704zM694.927 30.145h3.725v23.704h-3.725zM563.268 53.847V30.143h10.165v3.388h-6.437v6.941h5.114v3.387h-5.114v6.601h6.437v3.387zM370.491 102.311c-1.276-1.614-2.876-2.756-4.816-3.405-1.95-.675-4.83-1.016-8.642-1.016h-30.21l25.14 61.004.881 2.136.511 1.353c.678 1.751 1.012 3.035 1.012 3.851 0 3.757-4.613 5.632-13.839 5.632h-60.801l-1.777-4.206c5.082-.58 7.62-2.045 7.62-4.424 0-.816-.678-2.97-2.035-6.481l-28.563-69.19-1.389-3.484c-.682-1.781-1.015-3.024-1.015-3.79 0-3.797 4.65-5.697 13.966-5.697h79.329c8.124 0 13.912.682 17.393 2.063 3.377 1.382 5.88 4.088 7.49 8.132l7.234 17.523zM592.35 48.395c0 1.69.686 2.332 1.864 2.332 1.19 0 1.86-.641 1.86-2.331v-1.15h3.526v.91c0 3.793-1.868 5.958-5.487 5.958-3.62 0-5.48-2.165-5.48-5.958 0-6.77 7.279-7.685 7.279-12.559 0-1.694-.751-2.303-1.934-2.303-1.186 0-1.933.61-1.933 2.304v1.863h-3.521v-1.629c0-3.789 1.9-5.955 5.555-5.955 3.653 0 5.549 2.166 5.549 5.955 0 6.771-7.278 7.686-7.278 12.563M679.12 36.682c0 2.47-.609 4.265-2.47 5.045 1.66.776 2.441 2.368 2.441 4.805v1.864c0 3.656-1.665 5.45-5.52 5.45h-5.622v-23.7h3.725v9.65h1.288c1.69 0 2.433-.815 2.433-3.012v-3.725c0-1.93.138-2.303.337-2.912h3.79c-.366.88-.402 1.726-.402 2.879zm-3.754 9.005c0-1.897-.845-2.503-2.234-2.503h-1.458v7.276h1.792c1.32 0 1.9-.747 1.9-2.434zM646.516 54.116c-3.656 0-5.65-2.165-5.65-5.958V35.834c0-3.793 1.994-5.958 5.65-5.958 3.663 0 5.653 2.165 5.653 5.958v12.324c0 3.793-1.99 5.958-5.653 5.958m1.937-18.518c0-1.693-.751-2.335-1.937-2.335-1.18 0-1.93.642-1.93 2.335v12.799c0 1.69.75 2.332 1.93 2.332 1.186 0 1.937-.642 1.937-2.332zM710.792 171.866c-5.755 0-10.626-.091-14.604-.254-3.975-.163-7.232-.42-9.766-.75-5.597-.617-10.282-1.825-14.094-3.635-3.376-1.613-6.48-4.018-9.269-7.198-2.872-3.137-5.205-6.866-6.974-11.188-3.214-8.026-4.82-13.633-4.82-16.813 0-2.71.541-4.85 1.646-6.412 1.012-1.665 2.833-3.163 5.462-4.486 2.448-1.335 6.427-2.924 11.928-4.781l21.071-6.973c4.051-1.335 6.557-2.29 7.485-2.851 1.008-.627 1.535-1.523 1.535-2.72 0-4.23-6.053-6.34-18.162-6.34h-26.78c-4.156 0-6.941.284-8.37.86-1.454.566-2.416 1.806-2.931 3.703h-7.235l-6.851-16.381c-.681-1.814-1.018-3.196-1.018-4.138 0-1.284.381-2.34 1.145-3.138.591-.725 1.905-1.501 3.932-2.353 1.853-.671 4.652-1.07 8.377-1.204 3.805-.15 11-.218 21.579-.218h47.476c11.087 0 20.098 1.563 27.04 4.71 3.971 1.69 7.616 4.567 10.913 8.607 3.046 3.71 6.56 10.362 10.531 19.957a19.367 19.367 0 011.654 7.907c0 3.38-1.309 6.219-3.931 8.555-2.796 2.419-7.202 4.678-13.194 6.767l-22.597 8.13c-3.653 1.32-6.013 2.322-7.116 2.993-1.269.704-1.9 1.483-1.9 2.346 0 3.33 4.609 4.99 13.828 4.99h22.086c6.18 0 10.452.596 12.824 1.78 2.361 1.187 4.316 3.635 5.842 7.338l5.466 13.19zM743.814 48.395c0 1.69.675 2.332 1.86 2.332 1.19 0 1.865-.641 1.865-2.331v-1.15h3.521v.91c0 3.793-1.867 5.958-5.49 5.958-3.616 0-5.477-2.165-5.477-5.958 0-6.77 7.276-7.685 7.276-12.559 0-1.694-.747-2.303-1.93-2.303-1.186 0-1.933.61-1.933 2.304v1.863h-3.52v-1.629c0-3.789 1.9-5.955 5.559-5.955 3.649 0 5.549 2.166 5.549 5.955 0 6.771-7.28 7.686-7.28 12.563M714.729 53.847V30.143h10.165v3.388h-6.436v6.941h5.113v3.387h-5.113v6.601h6.436v3.387zM618.388 48.395c0 1.69.675 2.332 1.86 2.332 1.183 0 1.86-.641 1.86-2.331v-1.15h3.526v.91c0 3.793-1.868 5.958-5.491 5.958-3.62 0-5.48-2.165-5.48-5.958 0-6.77 7.279-7.685 7.279-12.559 0-1.694-.747-2.303-1.93-2.303-1.186 0-1.933.61-1.933 2.304v1.863h-3.517v-1.629c0-3.789 1.896-5.955 5.555-5.955 3.649 0 5.549 2.166 5.549 5.955 0 6.771-7.278 7.686-7.278 12.563M404.633 48.395c0 1.69.675 2.332 1.864 2.332 1.179 0 1.86-.641 1.86-2.331v-1.15h3.518v.91c0 3.793-1.864 5.958-5.483 5.958-3.627 0-5.487-2.165-5.487-5.958 0-6.77 7.282-7.685 7.282-12.559 0-1.694-.743-2.303-1.933-2.303-1.183 0-1.93.61-1.93 2.304v1.863h-3.517v-1.629c0-3.789 1.893-5.955 5.553-5.955 3.65 0 5.548 2.166 5.548 5.955 0 6.771-7.275 7.686-7.275 12.563M446.679 46.944a4.676 4.676 0 01-4.675-4.68 4.68 4.68 0 014.675-4.68 4.686 4.686 0 014.682 4.68c0 2.587-2.1 4.68-4.682 4.68M486.084 53.847l-3.789-23.704h3.416l.649 4.302h4.566l.638-4.302h3.761l-3.786 23.704zm2.539-4.196l1.795-11.99h-3.587zM375.55 53.847V30.143h10.158v3.388h-6.43v6.941h5.106v3.387h-5.106v6.601h6.43v3.387zM590.976 74.595l1.646 4.2c-4.998.569-7.485 1.857-7.485 3.847 0 .617.678 2.967 2.024 7.047l6.488 19.82 53.819 49.808c4.05 3.797 6.096 6.509 6.096 8.127 0 2.94-4.917 4.42-14.732 4.42H595.16l-1.77-4.061c3.815-.337 5.712-1.117 5.712-2.354 0-.863-1.266-2.542-3.808-5.062l-20.178-19.526-11.555 23.159c-1.353 2.612-2.586 4.443-3.677 5.49-1.193.944-2.8 1.586-4.831 1.93-2.118.273-5.752.425-10.912.425h-48.996l-1.653-4.062c3.386-.392 5.624-1.03 6.73-1.926 1.103-.856 2.528-3.144 4.315-6.836l24.879-49.815-8.884-21.662-1.52-3.485c-.6-1.672-.89-2.931-.89-3.79 0-3.797 4.61-5.694 13.833-5.694h6.35zM493.616 98.905c-1.937-.674-4.812-1.012-8.624-1.012h-30.214l25.133 61 .892 2.14.511 1.352c.675 1.752 1.012 3.036 1.012 3.849 0 3.76-4.62 5.63-13.843 5.63H407.687l-1.78-4.205c5.08-.577 7.618-2.042 7.618-4.425 0-.812-.678-2.966-2.027-6.48l-28.567-69.19-1.399-3.485c-.679-1.777-1.013-3.024-1.013-3.79 0-3.797 4.65-5.693 13.963-5.693h79.332c8.124 0 13.916.678 17.39 2.059 3.38 1.382 5.883 4.088 7.49 8.132l7.241 17.523h-7.496c-1.269-1.613-2.872-2.752-4.823-3.405M542.08 54.116c-3.652 0-5.553-2.165-5.553-5.958V35.834c0-3.793 1.901-5.958 5.553-5.958 3.655 0 5.552 2.165 5.552 5.958v3.148h-3.518v-3.384c0-1.693-.747-2.303-1.936-2.303-1.179 0-1.926.61-1.926 2.303v12.799c0 1.69.747 2.332 1.926 2.332 1.19 0 1.936-.642 1.936-2.332v-2.54h3.518v2.3c0 3.794-1.897 5.959-5.552 5.959M515.642 54.116c-3.663 0-5.55-2.165-5.55-5.958V35.834c0-3.793 1.887-5.958 5.55-5.958 3.656 0 5.549 2.165 5.549 5.958v3.148h-3.522v-3.384c0-1.693-.743-2.303-1.932-2.303-1.18 0-1.923.61-1.923 2.303v12.799c0 1.69.744 2.332 1.923 2.332 1.189 0 1.932-.642 1.932-2.332v-2.54h3.522v2.3c0 3.794-1.893 5.959-5.55 5.959"/></g></svg>